# xmcd
#
# Track frame offsets:
# 150
# 19589
# 49101
# 76546
# 111024
# 147406
# 170974
# 193441
# 233629
# 250051
# 288129
# 327191
#
# Disc length: 4759 seconds
#
#
# Revision: 0
# Processed by: cddbd v1.5.1PL0 Copyright (c) Steve Scherf et al.
# Submitted via: FreeRIP 2.941 
#
DISCID=a012950c
DTITLE=Jan Kyks Skrzek - Modlitwa bluesmana w pociagu
DYEAR=1997
DGENRE=Blues
TTITLE0=Pierwszy listopada
TTITLE1=W Siemianowicach
TTITLE2=Nikt nie zna swej godziny
TTITLE3=I tak nas wciaga kapitalizm
TTITLE4=Blues bardzo slaski
TTITLE5=Slodki dom
TTITLE6=Nikt nie zawroci kijem Wisly
TTITLE7=Rajska kuznia
TTITLE8=Stoja na zdjeciu
TTITLE9=Modlitwa bluesmana w pociagu
TTITLE10=Sztajger
TTITLE11=Modlitwa bluesmana w pociagu - film
EXTD=Koncert Zaduszkowy 1997 w Chorzowie
EXTT0=
EXTT1=
EXTT2=
EXTT3=
EXTT4=
EXTT5=
EXTT6=
EXTT7=
EXTT8=
EXTT9=
EXTT10=
EXTT11=
PLAYORDER=
